<?xml version="1.0" encoding="utf-8"?>
<!-- Generator: Adobe Illustrator 12.0.1, SVG Export Plug-In . SVG Version: 6.00 Build 51448)  -->
<!DOCTYPE svg PUBLIC "-//W3C//DTD SVG 1.1//EN" "http://www.w3.org/Graphics/SVG/1.1/DTD/svg11.dtd" [
	<!ENTITY ns_svg "http://www.w3.org/2000/svg">
	<!ENTITY ns_xlink "http://www.w3.org/1999/xlink">
]>
<svg xmlns="http://www.w3.org/2000/svg" viewBox="0 0 500 150" width="100" height="30">
  <path d="M50,60 h20 v10 h0.5 c3.5-7.5,11.5-12,19.5-12 c21,0,25,17.5,25,28 v39 h-20 v-34 c0-7.5-0.5-17-10.5-17 c-10.5,0-14.5,8-14.5,16.5 v34.5 h-20 z" fill="#000000"/>
  <path d="M130,60 h20 v65 h-20 z M130,40 h20 v15 h-20 z" fill="#000000"/>
  <path d="M165,60 h20 v9 h0.5 c5-7.5,12-11,20-11 c21,0,25,17,25,28 v39 h-20 v-34 c0-7.5-0.5-17-10.5-17 c-10.5,0-15,8-15,16.5 v34.5 h-20 z" fill="#000000"/>
  <path d="M245,60 h20 v65 h-20 z M245,40 h20 v15 h-20 z" fill="#000000"/>
  <path d="M280,92.5 c0-19,13.5-34.5,33-34.5 c24,0,33,19,33,39 v3.5 h-46 c1.5,8.5,7.5,13.5,16,13.5 c7,0,11.5-3.5,14-8.5 h15 c-4,12.5-15.5,21-30,21 c-19.5,0-35-14-35-34 z M326,89 c-0.5-7.5-7-15.5-16-15.5 c-9,0-14.5,7-15.5,15.5 z" fill="#000000"/>
  <path d="M355,60 h19 v10 h0.5 c3.5-7.5,11.5-12,19.5-12 c21,0,25,17.5,25,28 v39 h-20 v-34 c0-7.5-0.5-17-10.5-17 c-10.5,0-14.5,8-14.5,16.5 v34.5 h-20 v-65 z" fill="#000000"/>
  <path d="M435,92.5 c0-19,15-34.5,34-34.5 s34,15.5,34,34.5 s-15,34.5-34,34.5 s-34-15.5-34-34.5 z M483,92.5 c0-9-6-17-14-17 s-14,8-14,17 s6,17,14,17 s14-8,14-17 z" fill="#000000"/>
</svg>
