<svg xmlns="http://www.w3.org/2000/svg" viewBox="0 0 500 150" width="100" height="30">
  <path d="M50,75 h15 v-30 h15 v30 h15 v15 h-15 v30 h-15 v-30 h-15 z" fill="#000000"/>
  <path d="M110,60 c-8.3,0-15,6.7-15,15 v30 c0,8.3,6.7,15,15,15 s15-6.7,15-15 v-30 c0-8.3-6.7-15-15-15 z M110,105 c-2.8,0-5-2.2-5-5 v-30 c0-2.8,2.2-5,5-5 s5,2.2,5,5 v30 c0,2.8-2.2,5-5,5 z" fill="#000000"/>
  <path d="M145,60 h10 v10 h0.5 c1.5-6.7,7.5-10,14.5-10 v15 c-10,0-15,5-15,15 v30 h-10 z" fill="#000000"/>
  <path d="M180,60 h10 v60 h-10 z M180,40 h10 v10 h-10 z" fill="#000000"/>
  <path d="M205,60 h10 v5 h0.5 c2.5-3.3,7.5-6.7,15-6.7 c11.7,0,19.5,10,19.5,22.5 v39.2 h-10 v-37.5 c0-8.3-5-13.3-12.5-13.3 s-12.5,5-12.5,13.3 v37.5 h-10 z" fill="#000000"/>
  <path d="M265,60 h10 v10 h0.5 c1.7-6.7,8.3-11.7,15.8-11.7 c7.5,0,12.5,3.3,15,10 c3.3-6.7,9.2-10,17.5-10 c10,0,16.7,5.8,16.7,17.5 v44.2 h-10 v-40.8 c0-8.3-3.3-10.8-10-10.8 c-6.7,0-11.7,5-11.7,11.7 v40 h-10 v-40.8 c0-8.3-3.3-10.8-10-10.8 c-6.7,0-11.7,5-11.7,11.7 v40 h-10 v-60 z" fill="#000000"/>
  <path d="M355,60 h10 v10 h0.5 c1.5-6.7,7.5-10,14.5-10 v15 c-10,0-15,5-15,15 v30 h-10 z" fill="#000000"/>
  <path d="M390,90 c0-16.7,12.5-31.7,30-31.7 c17.5,0,30,15,30,31.7 s-12.5,31.7-30,31.7 c-17.5,0-30-15-30-31.7 z M440,90 c0-11.7-8.3-20-20-20 s-20,8.3-20,20 s8.3,20,20,20 s20-8.3,20-20 z" fill="#000000"/>
</svg> 