<svg xmlns="http://www.w3.org/2000/svg" width="72" height="72"><path fill="#007db8" d="m33.479 27.059-8.942 6.879c-.917-3.44-3.899-5.963-7.568-5.963h-6.42v15.822h6.42c3.669 0 6.879-2.523 7.566-5.963l8.944 6.879 8.943-6.879v5.963H52.51v-3.21h-6.648V27.974h-3.67v5.961l-8.484 6.88-1.835-1.605L36.002 36l4.355-3.44-2.521-2.062-8.485 6.648-1.834-1.605 8.484-6.42zm-19.49 4.125h2.752c.573 0 1.133.13 1.648.367.516.237.988.58 1.39 1.01.4.43.73.945.96 1.525s.357 1.227.357 1.914c0 .631-.114 1.247-.326 1.817a5 5 0 0 1-.906 1.537c-.387.444-.852.81-1.379 1.064a4 4 0 0 1-1.744.397h-2.752zm49.987 9.403v3.21H53.887V27.975h3.669v12.611zM36 0C16.28 0 0 16.28 0 36s16.051 36 36 36 36-16.05 36-36S55.72 0 36 0m0 3.67c2.236 0 4.417.224 6.523.654a32.1 32.1 0 0 1 11.567 4.86 32.4 32.4 0 0 1 8.726 8.726 32.136 32.136 0 0 1 4.86 11.566c.43 2.107.654 4.288.654 6.524s-.224 4.417-.654 6.523a32.1 32.1 0 0 1-4.86 11.567 32.4 32.4 0 0 1-8.726 8.726 32.136 32.136 0 0 1-11.566 4.86c-2.107.43-4.288.654-6.524.654s-4.417-.224-6.523-.654a32 32 0 0 1-6.075-1.878A32.325 32.325 0 0 1 9.184 54.093a32.14 32.14 0 0 1-4.86-11.567c-.43-2.106-.655-4.287-.655-6.523s.225-4.417.655-6.523a32.1 32.1 0 0 1 4.86-11.567A32.35 32.35 0 0 1 23.401 6.208a32 32 0 0 1 6.075-1.88A32.6 32.6 0 0 1 36 3.672z"/></svg>