<?xml version="1.0" encoding="UTF-8"?>
<svg xmlns="http://www.w3.org/2000/svg" viewBox="0 0 500 150" width="100" height="30">
  <path d="M50,50h30v10H70v50H60V60H50V50z" fill="#000000"/>
  <path d="M90,80c0-16.6,13.4-30,30-30s30,13.4,30,30s-13.4,30-30,30S90,96.6,90,80z M140,80c0-11-9-20-20-20s-20,9-20,20s9,20,20,20S140,91,140,80z" fill="#000000"/>
  <path d="M160,50h10v10h0.5c2.5-7.5,10-11.7,17.5-11.7c15,0,22.5,12.5,22.5,25v0.1c0,12.5-7.5,25-22.5,25c-7.5,0-15-4.2-17.5-11.7H170v30h-10V50z M200,73.4c0-8.4-5-15-14.2-15c-9.2,0-15.8,6.6-15.8,15v0.1c0,8.4,6.7,15,15.8,15c9.2,0,14.2-6.6,14.2-15V73.4z" fill="#000000"/>
  <path d="M220,50h10v10h0.5c2.5-7.5,10-11.7,17.5-11.7c7.5,0,15,4.2,17.5,11.7c3.3-7.5,11.7-11.7,19.2-11.7c12.5,0,20.8,6.7,20.8,20.8v40.8h-10V70.9c0-9.2-5-12.5-12.5-12.5c-7.5,0-15,5.8-15,15v36.7h-10V70.9c0-9.2-5-12.5-12.5-12.5c-7.5,0-15,5.8-15,15v36.7h-10V50z" fill="#000000"/>
  <path d="M320,50h10v10h0.5c3.3-7.5,10.8-11.7,18.3-11.7c15,0,21.7,12.5,21.7,25v0.1c0,12.5-6.7,25-21.7,25c-7.5,0-15-4.2-18.3-11.7H330v30h-10V50z M360,73.4c0-8.4-4.2-15-13.3-15c-9.2,0-16.7,6.6-16.7,15v0.1c0,8.4,7.5,15,16.7,15c9.2,0,13.3-6.6,13.3-15V73.4z" fill="#000000"/>
  <path d="M380,80c0-16.6,13.4-30,30-30s30,13.4,30,30s-13.4,30-30,30S380,96.6,380,80z M430,80c0-11-9-20-20-20s-20,9-20,20s9,20,20,20S430,91,430,80z" fill="#000000"/>
</svg>