<svg xmlns="http://www.w3.org/2000/svg" viewBox="0 0 500 150" width="100" height="30">
  <path d="M50,60 l15,40 l15-40 h10 l15,40 l15-40 h10 l-20,60 h-10 l-15-40 l-15,40 h-10 l-20-60 z" fill="#000000"/>
  <path d="M140,60 h10 v60 h-10 z" fill="#000000"/>
  <path d="M160,60 h10 v10 h0.5 c2.5-7.5,10-11.7,17.5-11.7 c7.5,0,15,4.2,17.5,11.7 c2.5-7.5,10-11.7,17.5-11.7 c12.5,0,17.5,8.3,17.5,20 v41.7 h-10 v-40 c0-7.5-3.3-11.7-10-11.7 c-6.7,0-12.5,5.8-12.5,12.5 v39.2 h-10 v-40 c0-7.5-3.3-11.7-10-11.7 c-6.7,0-12.5,5.8-12.5,12.5 v39.2 h-10 v-60 z" fill="#000000"/>
  <path d="M255,60 h10 v10 h0.5 c3.3-7.5,10.8-11.7,18.3-11.7 c15,0,21.7,12.5,21.7,25 v0.1 c0,12.5-6.7,25-21.7,25 c-7.5,0-15-4.2-18.3-11.7 h-0.5 v30 h-10 v-66.7 z M295,83.4 c0-8.4-4.2-15-13.3-15 c-9.2,0-16.7,6.6-16.7,15 v0.1 c0,8.4,7.5,15,16.7,15 c9.2,0,13.3-6.6,13.3-15 v-0.1 z" fill="#000000"/>
  <path d="M320,90 c0-16.7,12.5-31.7,30-31.7 c17.5,0,30,15,30,31.7 s-12.5,31.7-30,31.7 c-17.5,0-30-15-30-31.7 z M370,90 c0-11.7-8.3-20-20-20 s-20,8.3-20,20 s8.3,20,20,20 s20-8.3,20-20 z" fill="#000000"/>
</svg>