<svg xmlns="http://www.w3.org/2000/svg" viewBox="0 0 500 150" width="100" height="30">
  <path d="M113.8,36.2c-14.2,0-25.4,10.4-25.4,24.5c0,14.1,11.2,24.5,25.4,24.5c14.2,0,25.4-10.4,25.4-24.5C139.2,46.6,128,36.2,113.8,36.2z M113.8,74.3c-7.5,0-13.4-5.9-13.4-13.6c0-7.7,5.9-13.6,13.4-13.6c7.5,0,13.4,5.9,13.4,13.6C127.2,68.4,121.3,74.3,113.8,74.3z" fill="#5f01d1"/>
  <path d="M178.4,37.3h-11.5v46.8h11.5v-8.5c3.1,6.5,9.5,9.7,15.6,9.7c13.9,0,22.9-10.8,22.9-24.5c0-13.7-9-24.5-22.9-24.5c-6.1,0-12.5,3.2-15.6,9.7V37.3z M190.5,74.3c-7.5,0-13.4-5.9-13.4-13.6c0-7.7,5.9-13.6,13.4-13.6c7.5,0,13.4,5.9,13.4,13.6C203.9,68.4,198,74.3,190.5,74.3z" fill="#5f01d1"/>
  <path d="M243.5,36.2c-14.2,0-25.4,10.4-25.4,24.5c0,14.1,11.2,24.5,25.4,24.5c14.2,0,25.4-10.4,25.4-24.5C268.9,46.6,257.7,36.2,243.5,36.2z M243.5,74.3c-7.5,0-13.4-5.9-13.4-13.6c0-7.7,5.9-13.6,13.4-13.6c7.5,0,13.4,5.9,13.4,13.6C256.9,68.4,251,74.3,243.5,74.3z" fill="#5f01d1"/>
  <path d="M303.7,36.2c-7.3,0-12.9,3.3-16.1,8.9v-7.8h-11.5v46.8h11.5V59.4c0-7.4,4.4-12.3,11.3-12.3c6.4,0,10.1,3.6,10.1,11.2v25.8h11.5V56.6C320.5,43.9,314.4,36.2,303.7,36.2z" fill="#5f01d1"/>
  <path d="M67.9,37.3l-9.6,24.5L48.7,37.3H35.9l-9.6,24.5l-9.6-24.5H3.9l17.6,46.8h12.8l9.6-24.5l9.6,24.5h12.8l17.6-46.8H67.9z" fill="#5f01d1"/>
  <path d="M377.5,36.2c-6.1,0-12.5,3.2-15.6,9.7v-8.5h-11.5v46.8h11.5V59.4c0-7.4,4.4-12.3,11.3-12.3c6.4,0,10.1,3.6,10.1,11.2v25.8h11.5V56.6C394.8,43.9,388.7,36.2,377.5,36.2z" fill="#5f01d1"/>
  <path d="M426.3,74.3c-7.5,0-13.4-5.9-13.4-13.6c0-7.7,5.9-13.6,13.4-13.6c5.2,0,9.8,3,11.9,7.5h12.3c-2.8-11.1-12.8-18.5-24.2-18.5c-14.2,0-25.4,10.4-25.4,24.5c0,14.1,11.2,24.5,25.4,24.5c11.4,0,21.4-7.4,24.2-18.5h-12.3C436.1,71.3,431.5,74.3,426.3,74.3z" fill="#5f01d1"/>
</svg> 